<svg width="111" height="111" viewBox="0 0 111 111" fill="none" xmlns="http://www.w3.org/2000/svg">
<path fill-rule="evenodd" clip-rule="evenodd" d="M55.5 4.625C27.4031 4.625 4.625 27.4031 4.625 55.5C4.625 83.5969 27.4031 106.375 55.5 106.375C83.5969 106.375 106.375 83.5969 106.375 55.5C106.375 27.4031 83.5969 4.625 55.5 4.625ZM77.552 46.8975C77.9581 46.4333 78.2672 45.8927 78.4612 45.3073C78.6552 44.7219 78.7302 44.1036 78.6818 43.4888C78.6333 42.874 78.4624 42.2751 78.179 41.7273C77.8957 41.1796 77.5057 40.694 77.0319 40.2992C76.5581 39.9044 76.0102 39.6083 75.4203 39.4284C74.8305 39.2485 74.2105 39.1884 73.5971 39.2516C72.9836 39.3148 72.389 39.5 71.8482 39.7964C71.3074 40.0928 70.8313 40.4944 70.448 40.9775L50.5605 64.8379L40.2699 54.5426C39.3976 53.7001 38.2293 53.234 37.0166 53.2445C35.804 53.255 34.644 53.7415 33.7865 54.599C32.929 55.4565 32.4425 56.6165 32.432 57.8291C32.4215 59.0418 32.8876 60.2101 33.7301 61.0824L47.6051 74.9574C48.0596 75.4115 48.6036 75.766 49.2027 75.9983C49.8017 76.2305 50.4426 76.3354 51.0844 76.3063C51.7262 76.2771 52.3549 76.1145 52.9304 75.8289C53.5059 75.5434 54.0156 75.141 54.427 74.6475L77.552 46.8975Z" fill="white"/>
</svg>
