<svg width="169" height="64" viewBox="0 0 169 64" fill="none" xmlns="http://www.w3.org/2000/svg">
<path d="M0.887784 12.9876V9.81818H15.8203V12.9876H10.2539V28H6.45419V12.9876H0.887784ZM22.1236 9.81818V28H18.2795V9.81818H22.1236ZM41.3286 16.1836H37.4401C37.3691 15.6805 37.224 15.2337 37.0051 14.843C36.7861 14.4465 36.5049 14.1091 36.1617 13.831C35.8184 13.5528 35.4218 13.3397 34.972 13.1918C34.5281 13.0438 34.0458 12.9698 33.5249 12.9698C32.5839 12.9698 31.7642 13.2036 31.0658 13.6712C30.3674 14.1328 29.8258 14.8075 29.4411 15.6953C29.0564 16.5772 28.8641 17.6484 28.8641 18.9091C28.8641 20.2053 29.0564 21.2943 29.4411 22.1761C29.8318 23.058 30.3763 23.7238 31.0747 24.1737C31.7731 24.6235 32.5809 24.8484 33.4983 24.8484C34.0132 24.8484 34.4897 24.7803 34.9276 24.6442C35.3715 24.508 35.7651 24.3098 36.1084 24.0494C36.4517 23.783 36.7358 23.4605 36.9607 23.0817C37.1915 22.7029 37.3513 22.2708 37.4401 21.7855L41.3286 21.8033C41.228 22.6378 40.9764 23.4427 40.574 24.218C40.1774 24.9875 39.6418 25.677 38.9671 26.2866C38.2983 26.8903 37.4993 27.3697 36.57 27.7248C35.6468 28.074 34.6021 28.2486 33.4362 28.2486C31.8145 28.2486 30.3644 27.8816 29.086 27.1477C27.8135 26.4138 26.8074 25.3514 26.0676 23.9606C25.3337 22.5697 24.9667 20.8859 24.9667 18.9091C24.9667 16.9264 25.3396 15.2396 26.0853 13.8487C26.8311 12.4579 27.8431 11.3984 29.1215 10.6705C30.3999 9.93655 31.8382 9.5696 33.4362 9.5696C34.4897 9.5696 35.4662 9.71757 36.3659 10.0135C37.2714 10.3094 38.0734 10.7415 38.7718 11.3097C39.4701 11.8719 40.0383 12.5614 40.4763 13.3782C40.9202 14.195 41.2043 15.1301 41.3286 16.1836ZM53.4268 28V30.8675H41.4862V28H53.4268ZM52.8897 12.9876V9.81818H67.8223V12.9876H62.2559V28H58.4561V12.9876H52.8897ZM71.1936 28H67.0743L73.3509 9.81818H78.3048L84.5725 28H80.4532L75.8989 13.973H75.7568L71.1936 28ZM70.9362 20.8533H80.6663V23.854H70.9362V20.8533ZM101.949 16.1836H98.0602C97.9892 15.6805 97.8442 15.2337 97.6252 14.843C97.4062 14.4465 97.1251 14.1091 96.7818 13.831C96.4385 13.5528 96.042 13.3397 95.5922 13.1918C95.1483 13.0438 94.6659 12.9698 94.1451 12.9698C93.204 12.9698 92.3843 13.2036 91.6859 13.6712C90.9875 14.1328 90.446 14.8075 90.0613 15.6953C89.6766 16.5772 89.4842 17.6484 89.4842 18.9091C89.4842 20.2053 89.6766 21.2943 90.0613 22.1761C90.4519 23.058 90.9964 23.7238 91.6948 24.1737C92.3932 24.6235 93.2011 24.8484 94.1184 24.8484C94.6333 24.8484 95.1098 24.7803 95.5478 24.6442C95.9917 24.508 96.3852 24.3098 96.7285 24.0494C97.0718 23.783 97.3559 23.4605 97.5808 23.0817C97.8116 22.7029 97.9714 22.2708 98.0602 21.7855L101.949 21.8033C101.848 22.6378 101.597 23.4427 101.194 24.218C100.798 24.9875 100.262 25.677 99.5872 26.2866C98.9184 26.8903 98.1194 27.3697 97.1902 27.7248C96.2669 28.074 95.2222 28.2486 94.0563 28.2486C92.4346 28.2486 90.9846 27.8816 89.7061 27.1477C88.4337 26.4138 87.4275 25.3514 86.6877 23.9606C85.9538 22.5697 85.5868 20.8859 85.5868 18.9091C85.5868 16.9264 85.9597 15.2396 86.7054 13.8487C87.4512 12.4579 88.4632 11.3984 89.7417 10.6705C91.0201 9.93655 92.4583 9.5696 94.0563 9.5696C95.1098 9.5696 96.0864 9.71757 96.986 10.0135C97.8915 10.3094 98.6935 10.7415 99.3919 11.3097C100.09 11.8719 100.658 12.5614 101.096 13.3782C101.54 14.195 101.824 15.1301 101.949 16.1836ZM114.047 28V30.8675H102.106V28H114.047ZM0.887784 42.9876V39.8182H15.8203V42.9876H10.2539V58H6.45419V42.9876H0.887784ZM34.1575 48.9091C34.1575 50.8918 33.7817 52.5786 33.03 53.9695C32.2843 55.3603 31.2663 56.4227 29.976 57.1566C28.6917 57.8846 27.2476 58.2486 25.6436 58.2486C24.0279 58.2486 22.5778 57.8816 21.2935 57.1477C20.0092 56.4138 18.9941 55.3514 18.2484 53.9606C17.5027 52.5697 17.1298 50.8859 17.1298 48.9091C17.1298 46.9264 17.5027 45.2396 18.2484 43.8487C18.9941 42.4579 20.0092 41.3984 21.2935 40.6705C22.5778 39.9366 24.0279 39.5696 25.6436 39.5696C27.2476 39.5696 28.6917 39.9366 29.976 40.6705C31.2663 41.3984 32.2843 42.4579 33.03 43.8487C33.7817 45.2396 34.1575 46.9264 34.1575 48.9091ZM30.2601 48.9091C30.2601 47.6248 30.0678 46.5417 29.6831 45.6598C29.3043 44.7779 28.7686 44.1091 28.0762 43.6534C27.3837 43.1977 26.5729 42.9698 25.6436 42.9698C24.7144 42.9698 23.9036 43.1977 23.2111 43.6534C22.5186 44.1091 21.9801 44.7779 21.5953 45.6598C21.2166 46.5417 21.0272 47.6248 21.0272 48.9091C21.0272 50.1934 21.2166 51.2765 21.5953 52.1584C21.9801 53.0402 22.5186 53.709 23.2111 54.1648C23.9036 54.6205 24.7144 54.8484 25.6436 54.8484C26.5729 54.8484 27.3837 54.6205 28.0762 54.1648C28.7686 53.709 29.3043 53.0402 29.6831 52.1584C30.0678 51.2765 30.2601 50.1934 30.2601 48.9091ZM37.0051 58V39.8182H49.2565V42.9876H40.8492V47.32H48.6262V50.4893H40.8492V54.8306H49.292V58H37.0051Z" fill="white"/>
<path d="M63.9846 46.0564C64.3812 46.159 64.665 46.3299 64.8359 46.5692C65.0137 46.8017 65.1026 47.0889 65.1026 47.4308C65.1026 47.9436 64.9214 48.3333 64.559 48.6C64.1966 48.8667 63.6427 49 62.8974 49H61V48.4359H61.6154V44.0256H61V43.4615H62.8769C63.5949 43.4615 64.1111 43.5675 64.4256 43.7795C64.7402 43.9915 64.8974 44.3368 64.8974 44.8154C64.8974 45.1094 64.8291 45.359 64.6923 45.5641C64.5556 45.7624 64.3197 45.9162 63.9846 46.0256V46.0564ZM62.9385 48.4359C63.4376 48.4359 63.8103 48.3573 64.0564 48.2C64.3094 48.0359 64.4359 47.7795 64.4359 47.4308C64.4359 47.1026 64.3265 46.8462 64.1077 46.6615C63.8957 46.4769 63.5436 46.3846 63.0513 46.3846H62.2308V48.4359H62.9385ZM62.9282 45.8205C63.359 45.8205 63.6838 45.7487 63.9026 45.6051C64.1214 45.4547 64.2308 45.2154 64.2308 44.8872C64.2308 44.5658 64.1316 44.3436 63.9333 44.2205C63.735 44.0906 63.3692 44.0256 62.8359 44.0256H62.2308V45.8205H62.9282ZM69.7691 45.2564L68.3434 49.0308C68.234 49.3248 68.1246 49.5846 68.0152 49.8103C67.9058 50.0427 67.7861 50.2342 67.6562 50.3846C67.5263 50.535 67.3725 50.6479 67.1947 50.7231C67.0169 50.8051 66.8118 50.8462 66.5793 50.8462C66.4152 50.8462 66.2477 50.8256 66.0767 50.7846V50.2308C66.2408 50.265 66.405 50.2821 66.5691 50.2821C66.699 50.2821 66.8084 50.2684 66.8973 50.241C66.993 50.2205 67.0853 50.1658 67.1742 50.0769C67.2699 49.9949 67.3656 49.8684 67.4614 49.6974C67.5571 49.5333 67.6631 49.3009 67.7793 49H67.7075L66.3742 45.2564H65.8716V44.6923H67.5126V45.2564H67.0203L68.0562 48.2H68.087L69.1947 45.2564H68.7434V44.6923H70.1793V45.2564H69.7691ZM72.7401 49.6564C72.8289 49.6632 72.9281 49.6667 73.0375 49.6667C73.3042 49.6667 73.4922 49.5915 73.6016 49.441C73.711 49.2974 73.7657 49.0581 73.7657 48.7231V44.0256H73.1503V43.4615H74.9965V44.0256H74.3811V48.6718C74.3811 49.1915 74.2854 49.5812 74.0939 49.841C73.9093 50.1009 73.5742 50.2308 73.0888 50.2308C72.9589 50.2308 72.8426 50.2205 72.7401 50.2V49.6564ZM76.1764 45.0513C76.6892 44.812 77.2123 44.6923 77.7456 44.6923C78.2106 44.6923 78.5593 44.7983 78.7918 45.0103C79.0311 45.2222 79.1507 45.5641 79.1507 46.0359V48.4359H79.7661V49H78.5764L78.5354 48.3744H78.5046C78.1354 48.7915 77.6977 49 77.1918 49C76.7815 49 76.467 48.8974 76.2482 48.6923C76.0294 48.4803 75.92 48.1897 75.92 47.8205C75.92 46.9043 76.6482 46.4462 78.1046 46.4462H78.5354V46.0154C78.5354 45.7692 78.4636 45.5812 78.32 45.4513C78.1832 45.3214 77.961 45.2564 77.6533 45.2564C77.202 45.2564 76.7097 45.3761 76.1764 45.6154V45.0513ZM78.002 47.0103C77.0584 47.0103 76.5866 47.2667 76.5866 47.7795C76.5866 47.9983 76.6482 48.1624 76.7713 48.2718C76.9012 48.3812 77.0858 48.4359 77.3251 48.4359C77.7627 48.4359 78.1661 48.2274 78.5354 47.8103V47.0103H78.002ZM80.9436 45.8718C80.9436 45.4957 81.0975 45.2051 81.4052 45C81.7197 44.7949 82.1265 44.6923 82.6257 44.6923C83.0496 44.6923 83.4975 44.7675 83.9693 44.9179V45.9231H83.3539V45.3385C83.1146 45.2769 82.8547 45.2462 82.5744 45.2462C82.3009 45.2462 82.0718 45.2906 81.8872 45.3795C81.7026 45.4684 81.6103 45.6051 81.6103 45.7897C81.6103 45.8991 81.6308 45.9915 81.6718 46.0667C81.7197 46.135 81.7881 46.1966 81.877 46.2513C81.9659 46.2991 82.0787 46.347 82.2154 46.3949C82.3522 46.4427 82.5094 46.494 82.6872 46.5487C82.8582 46.6034 83.0291 46.6615 83.2 46.7231C83.371 46.7846 83.5248 46.8598 83.6616 46.9487C83.7983 47.0376 83.9077 47.1504 83.9898 47.2872C84.0787 47.4171 84.1231 47.5812 84.1231 47.7795C84.1231 48.1624 83.9624 48.4632 83.6411 48.6821C83.3197 48.894 82.8958 49 82.3693 49C81.8975 49 81.4394 48.9077 80.9949 48.7231V47.7692H81.6103V48.3538C81.8633 48.4154 82.1334 48.4462 82.4206 48.4462C82.7077 48.4462 82.9505 48.4017 83.1488 48.3128C83.3539 48.2171 83.4564 48.0701 83.4564 47.8718C83.4564 47.6598 83.3641 47.506 83.1795 47.4103C83.0017 47.3145 82.7488 47.2188 82.4206 47.1231C82.2496 47.0752 82.0753 47.0205 81.8975 46.959C81.7265 46.8974 81.5693 46.8222 81.4257 46.7333C81.2821 46.6376 81.1659 46.5214 81.077 46.3846C80.9881 46.2479 80.9436 46.0769 80.9436 45.8718ZM85.5058 46.8667C85.5058 46.1966 85.6938 45.6667 86.0699 45.2769C86.4459 44.8872 86.9246 44.6923 87.5058 44.6923C88.0801 44.6923 88.5382 44.8769 88.8801 45.2462C89.2288 45.6085 89.4032 46.1179 89.4032 46.7744C89.4032 47.4581 89.2186 48.0017 88.8493 48.4051C88.4869 48.8017 88.0117 49 87.4237 49C86.8493 49 86.3844 48.8085 86.0288 48.4256C85.6801 48.0427 85.5058 47.5231 85.5058 46.8667ZM86.1724 46.7744C86.1724 47.3214 86.2852 47.735 86.5109 48.0154C86.7365 48.2957 87.0613 48.4359 87.4852 48.4359C87.8887 48.4359 88.1964 48.3026 88.4083 48.0359C88.6271 47.7692 88.7365 47.3726 88.7365 46.8462C88.7365 46.3128 88.6271 45.9162 88.4083 45.6564C88.1964 45.3897 87.8716 45.2564 87.434 45.2564C87.0442 45.2564 86.7365 45.3795 86.5109 45.6256C86.2852 45.865 86.1724 46.2479 86.1724 46.7744ZM90.5825 48.4359H91.1979V45.2564H90.5825V44.6923H91.7825L91.8133 45.2974H91.8235C92.2133 44.894 92.6646 44.6923 93.1774 44.6923C93.5876 44.6923 93.8885 44.8085 94.0799 45.041C94.2782 45.2735 94.3774 45.5949 94.3774 46.0051V48.4359H94.9928V49H93.1466V48.4359H93.762V46.0769C93.762 45.7692 93.6936 45.5573 93.5569 45.441C93.4201 45.3179 93.2389 45.2564 93.0133 45.2564C92.5552 45.2564 92.1552 45.4752 91.8133 45.9128V48.4359H92.4287V49H90.5825V48.4359ZM63.1949 55.1385L64.6615 53.0256H64.0769V52.4615H65.9231V53.0256H65.3077L63.4615 55.6923V57.4359H64.0769V58H62.2308V57.4359H62.8462V55.7128L61 53.0256H60.3846V52.4615H62.2308V53.0256H61.759L63.1744 55.1385H63.1949ZM65.8698 54.0513C66.3826 53.812 66.9057 53.6923 67.439 53.6923C67.904 53.6923 68.2527 53.7983 68.4852 54.0103C68.7245 54.2222 68.8442 54.5641 68.8442 55.0359V57.4359H69.4596V58H68.2698L68.2288 57.3744H68.198C67.8288 57.7915 67.3912 58 66.8852 58C66.4749 58 66.1604 57.8974 65.9416 57.6923C65.7228 57.4803 65.6134 57.1897 65.6134 56.8205C65.6134 55.9043 66.3416 55.4462 67.798 55.4462H68.2288V55.0154C68.2288 54.7692 68.157 54.5812 68.0134 54.4513C67.8767 54.3214 67.6544 54.2564 67.3467 54.2564C66.8955 54.2564 66.4031 54.3761 65.8698 54.6154V54.0513ZM67.6955 56.0103C66.7519 56.0103 66.2801 56.2667 66.2801 56.7795C66.2801 56.9983 66.3416 57.1624 66.4647 57.2718C66.5946 57.3812 66.7792 57.4359 67.0185 57.4359C67.4561 57.4359 67.8596 57.2274 68.2288 56.8103V56.0103H67.6955ZM70.3294 57.4359H70.9448V54.2564H70.3294V53.6923H71.5294L71.5601 54.2974H71.5704C71.9601 53.894 72.4114 53.6923 72.9242 53.6923C73.3345 53.6923 73.6354 53.8085 73.8268 54.041C74.0251 54.2735 74.1242 54.5949 74.1242 55.0051V57.4359H74.7396V58H72.8935V57.4359H73.5089V55.0769C73.5089 54.7692 73.4405 54.5573 73.3037 54.441C73.167 54.3179 72.9858 54.2564 72.7601 54.2564C72.302 54.2564 71.902 54.4752 71.5601 54.9128V57.4359H72.1755V58H70.3294V57.4359ZM78.6882 57.8256V57.5282H78.6677C78.3395 57.8427 77.9634 58 77.5395 58C77.0403 58 76.6266 57.8051 76.2984 57.4154C75.9771 57.0256 75.8164 56.5333 75.8164 55.9385C75.8164 55.2615 75.9942 54.7179 76.3497 54.3077C76.7053 53.8974 77.2112 53.6923 77.8677 53.6923C78.2916 53.6923 78.7702 53.7709 79.3036 53.9282V57.8256C79.3036 58.5436 79.1565 59.0598 78.8625 59.3744C78.5685 59.6889 78.0967 59.8462 77.4471 59.8462C77.0369 59.8462 76.6301 59.788 76.2266 59.6718V59.0769C76.6027 59.2137 77.0095 59.2821 77.4471 59.2821C77.8984 59.2821 78.2164 59.1829 78.401 58.9846C78.5924 58.7932 78.6882 58.4068 78.6882 57.8256ZM78.6882 54.359C78.4078 54.2906 78.1172 54.2564 77.8164 54.2564C77.3651 54.2564 77.0301 54.3897 76.8112 54.6564C76.5924 54.9162 76.483 55.3128 76.483 55.8462C76.483 56.3726 76.589 56.7692 76.801 57.0359C77.013 57.3026 77.3104 57.4359 77.6933 57.4359C78.0762 57.4359 78.4078 57.2889 78.6882 56.9949V54.359ZM84.943 58H83.0969V57.4359H83.7123V53.0256H83.0969V52.4615H87.1994V54.1026H86.5841V53.0256H84.3276V54.8205H85.3533V54.2051H85.9687V56.0513H85.3533V55.3846H84.3276V57.4359H84.943V58ZM87.9667 55.8667C87.9667 55.1966 88.1547 54.6667 88.5308 54.2769C88.9069 53.8872 89.3855 53.6923 89.9667 53.6923C90.541 53.6923 90.9992 53.8769 91.341 54.2462C91.6898 54.6085 91.8641 55.1179 91.8641 55.7744C91.8641 56.4581 91.6795 57.0017 91.3103 57.4051C90.9479 57.8017 90.4727 58 89.8846 58C89.3103 58 88.8453 57.8085 88.4898 57.4256C88.141 57.0427 87.9667 56.5231 87.9667 55.8667ZM88.6334 55.7744C88.6334 56.3214 88.7462 56.735 88.9718 57.0154C89.1975 57.2957 89.5222 57.4359 89.9462 57.4359C90.3496 57.4359 90.6573 57.3026 90.8693 57.0359C91.0881 56.7692 91.1975 56.3726 91.1975 55.8462C91.1975 55.3128 91.0881 54.9162 90.8693 54.6564C90.6573 54.3897 90.3325 54.2564 89.8949 54.2564C89.5052 54.2564 89.1975 54.3795 88.9718 54.6256C88.7462 54.865 88.6334 55.2479 88.6334 55.7744ZM95.7101 54.4C95.5665 54.3726 95.4263 54.359 95.2896 54.359C94.8246 54.359 94.4862 54.5744 94.2742 55.0051V57.4359H94.8896V58H93.0434V57.4359H93.6588V54.2564H93.0434V53.6923H94.2332L94.2742 54.3179H94.2947C94.5614 53.9009 94.9272 53.6923 95.3922 53.6923C95.4947 53.6923 95.6007 53.7026 95.7101 53.7231V54.4ZM98.6853 53.0256V52.4615H102.788V54.1026H102.172V53.0256H99.9161V54.8205H100.942V54.2051H101.557V56.0513H100.942V55.3846H99.9161V57.4359H102.172V56.359H102.788V58H98.6853V57.4359H99.3007V53.0256H98.6853ZM103.967 53.0256V52.4615H108.07V54.1026H107.454V53.0256H105.198V54.8205H106.224V54.2051H106.839V56.0513H106.224V55.3846H105.198V57.4359H107.454V56.359H108.07V58H103.967V57.4359H104.583V53.0256H103.967ZM113.967 57.4769C113.365 57.8256 112.757 58 112.141 58C111.348 58 110.709 57.7504 110.223 57.2513C109.745 56.7521 109.505 56.0821 109.505 55.241C109.505 54.359 109.748 53.6752 110.234 53.1897C110.726 52.7043 111.372 52.4615 112.172 52.4615C112.767 52.4615 113.365 52.6051 113.967 52.8923V54.3077H113.352V53.2821C112.989 53.1111 112.579 53.0256 112.121 53.0256C111.485 53.0256 110.999 53.2171 110.664 53.6C110.336 53.9761 110.172 54.506 110.172 55.1897C110.172 55.8872 110.35 56.4376 110.705 56.841C111.061 57.2376 111.557 57.4359 112.193 57.4359C112.74 57.4359 113.331 57.2581 113.967 56.9026V57.4769ZM116.769 58C116.228 58 115.688 57.8872 115.148 57.6615V56.359H115.764V57.2821C116.078 57.3846 116.447 57.4359 116.871 57.4359C117.302 57.4359 117.634 57.3538 117.866 57.1897C118.105 57.0256 118.225 56.8205 118.225 56.5744C118.225 56.4376 118.198 56.3214 118.143 56.2256C118.095 56.1299 118.017 56.0444 117.907 55.9692C117.798 55.894 117.658 55.8222 117.487 55.7538C117.316 55.6855 117.111 55.6137 116.871 55.5385C116.666 55.4701 116.458 55.3949 116.246 55.3128C116.04 55.2308 115.849 55.1316 115.671 55.0154C115.5 54.8991 115.36 54.7556 115.251 54.5846C115.148 54.4068 115.097 54.1949 115.097 53.9487C115.097 53.5043 115.278 53.1453 115.64 52.8718C116.01 52.5983 116.499 52.4615 117.107 52.4615C117.668 52.4615 118.177 52.5778 118.635 52.8103V54.1026H118.02V53.1897C117.76 53.0803 117.428 53.0256 117.025 53.0256C116.615 53.0256 116.3 53.1111 116.081 53.2821C115.869 53.4462 115.764 53.6444 115.764 53.8769C115.764 54.0274 115.791 54.1538 115.846 54.2564C115.907 54.3521 115.996 54.441 116.112 54.5231C116.228 54.5983 116.372 54.6701 116.543 54.7385C116.714 54.8 116.916 54.8684 117.148 54.9436C117.353 55.012 117.558 55.0872 117.764 55.1692C117.975 55.2513 118.164 55.3504 118.328 55.4667C118.499 55.5761 118.635 55.7162 118.738 55.8872C118.84 56.0513 118.892 56.253 118.892 56.4923C118.892 56.9709 118.704 57.3436 118.328 57.6103C117.952 57.8701 117.432 58 116.769 58ZM122.632 58V53.641H122.017V53.0769H123.247V58H122.632ZM125.043 55.5385C125.043 54.7863 125.224 54.188 125.586 53.7436C125.949 53.2991 126.434 53.0769 127.043 53.0769C127.61 53.0769 128.068 53.2923 128.417 53.7231C128.766 54.1538 128.94 54.7385 128.94 55.4769C128.94 56.2359 128.759 56.8479 128.396 57.3128C128.041 57.7709 127.566 58 126.971 58C126.383 58 125.914 57.7744 125.566 57.3231C125.217 56.8718 125.043 56.2769 125.043 55.5385ZM125.709 55.5077C125.709 56.1094 125.822 56.5812 126.048 56.9231C126.273 57.265 126.588 57.4359 126.991 57.4359C127.402 57.4359 127.716 57.2615 127.935 56.9128C128.161 56.5641 128.273 56.0923 128.273 55.4974C128.273 54.9231 128.167 54.4718 127.955 54.1436C127.75 53.8085 127.432 53.641 127.002 53.641C126.591 53.641 126.273 53.8017 126.048 54.1231C125.822 54.4444 125.709 54.906 125.709 55.5077ZM133.607 58H130.222V57.5179C131.077 56.8615 131.709 56.2838 132.119 55.7846C132.53 55.2786 132.735 54.8274 132.735 54.4308C132.735 54.2051 132.66 54.0171 132.509 53.8667C132.366 53.7162 132.119 53.641 131.771 53.641C131.456 53.641 131.172 53.7026 130.919 53.8256V54.4103H130.325V53.5179C130.81 53.2239 131.319 53.0769 131.853 53.0769C132.325 53.0769 132.701 53.1897 132.981 53.4154C133.261 53.6342 133.401 53.9385 133.401 54.3282C133.401 54.7795 133.2 55.2718 132.796 55.8051C132.393 56.3385 131.842 56.8821 131.145 57.4359H133.607V58ZM138.271 58H134.887V57.5179C135.741 56.8615 136.374 56.2838 136.784 55.7846C137.194 55.2786 137.399 54.8274 137.399 54.4308C137.399 54.2051 137.324 54.0171 137.174 53.8667C137.03 53.7162 136.784 53.641 136.435 53.641C136.121 53.641 135.837 53.7026 135.584 53.8256V54.4103H134.989V53.5179C135.475 53.2239 135.984 53.0769 136.517 53.0769C136.989 53.0769 137.365 53.1897 137.646 53.4154C137.926 53.6342 138.066 53.9385 138.066 54.3282C138.066 54.7795 137.864 55.2718 137.461 55.8051C137.058 56.3385 136.507 56.8821 135.81 57.4359H138.271V58Z" fill="#492CFF"/>
<path d="M132.327 13.9191L130.178 13.4849L130.597 11.4114L137.383 12.7826L136.964 14.8561L134.966 14.4523L138.044 21.7449L143.75 16.2272L141.488 15.7702L141.907 13.6967L148.693 15.0678L148.274 17.1413L146.125 16.7071L138.87 23.6775L142.85 32.918L144.999 33.3522L144.58 35.4256L137.794 34.0545L138.213 31.981L140.211 32.3847L137.087 25.1223L131.427 30.6099L133.689 31.0669L133.27 33.1404L126.484 31.7693L126.903 29.6958L129.052 30.13L136.261 23.1896L132.327 13.9191Z" fill="white"/>
<g filter="url(#filter0_d_49_30)">
<path d="M140.419 15.5769C140.419 12.4744 141.29 9.97436 143.034 8.07692C144.778 6.17949 147.111 5.23077 150.034 5.23077C152.88 5.23077 155.124 6.14103 156.765 7.96154C158.431 9.78205 159.265 12.2308 159.265 15.3077C159.265 18.5897 158.393 21.1923 156.649 23.1154C154.906 25.0385 152.611 26 149.765 26C146.944 26 144.675 25.0641 142.957 23.1923C141.265 21.2949 140.419 18.7564 140.419 15.5769ZM142.919 15.4231C142.919 17.9872 143.534 20.0385 144.765 21.5769C145.995 23.1154 147.688 23.8846 149.842 23.8846C152.021 23.8846 153.713 23.1154 154.919 21.5769C156.149 20.0385 156.765 17.9872 156.765 15.4231C156.765 12.9872 156.175 11.0385 154.995 9.57692C153.842 8.08974 152.137 7.34615 149.88 7.34615C147.649 7.34615 145.931 8.0641 144.726 9.5C143.521 10.9103 142.919 12.8846 142.919 15.4231Z" fill="white"/>
</g>
<defs>
<filter id="filter0_d_49_30" x="135.419" y="5.23077" width="28.8461" height="33.7692" filterUnits="userSpaceOnUse" color-interpolation-filters="sRGB">
<feFlood flood-opacity="0" result="BackgroundImageFix"/>
<feColorMatrix in="SourceAlpha" type="matrix" values="0 0 0 0 0 0 0 0 0 0 0 0 0 0 0 0 0 0 127 0" result="hardAlpha"/>
<feOffset dy="8"/>
<feGaussianBlur stdDeviation="2.5"/>
<feComposite in2="hardAlpha" operator="out"/>
<feColorMatrix type="matrix" values="0 0 0 0 0 0 0 0 0 0 0 0 0 0 0 0 0 0 0.5 0"/>
<feBlend mode="normal" in2="BackgroundImageFix" result="effect1_dropShadow_49_30"/>
<feBlend mode="normal" in="SourceGraphic" in2="effect1_dropShadow_49_30" result="shape"/>
</filter>
</defs>
</svg>
